PathFileType	4	(X/Y/Z)	G:\Shared drives\HPL_Drive\Pi-Spi Study\20230118_AMCsubject1\Trimmed_left_horiz_abd01_rotated.trc
DataRate	CameraRate	NumFrames	NumMarkers	Units	OrigDataRate	OrigDataStartFrame	OrigNumFrames
200.00	200.00	       6	35	mm	200.00	126	       200
Frame#	Time	C7			Sternum			r_AMC1			r_AMC2			r_AMC3			l_AMC1			l_AMC2			l_AMC3			PX			T8			r_humerous			r_elbow_medial			r_elbow_lateral			r_forearm			r_wrist_radius			r_wrist_ulna			r_MCP_1			r_MCP_3			l_humerous			l_elbow_medial			l_elbow_lateral			l_forearm			l_wrist_radius			l_wrist_ulna			l_MCP_1			l_MCP_3			r_ASIS			r_PSIS			l_ASIS			l_PSIS			r_IC			l_IC			TS			AI			AA			
		X1	Y1	Z1	X2	Y2	Z2	X3	Y3	Z3	X4	Y4	Z4	X5	Y5	Z5	X6	Y6	Z6	X7	Y7	Z7	X8	Y8	Z8	X9	Y9	Z9	X10	Y10	Z10	X11	Y11	Z11	X12	Y12	Z12	X13	Y13	Z13	X14	Y14	Z14	X15	Y15	Z15	X16	Y16	Z16	X17	Y17	Z17	X18	Y18	Z18	X19	Y19	Z19	X20	Y20	Z20	X21	Y21	Z21	X22	Y22	Z22	X23	Y23	Z23	X24	Y24	Z24	X25	Y25	Z25	X26	Y26	Z26	X27	Y27	Z27	X28	Y28	Z28	X29	Y29	Z29	X30	Y30	Z30	X31	Y31	Z31	X32	Y32	Z32	X33	Y33	Z33	X34	Y34	Z34	X35	Y35	Z35	

126	0.625	234.0121	1374.2916	-200.0359	370.3904	1323.1431	-219.4329	240.4988	1327.9684	-61.1397	275.381	1333.255	-25.889	294.3361	1366.5997	-49.5201	193.7904	1354.9625	-314.5941	215.1205	1374.3164	-356.9294	245.7906	1401.2601	-321.4349	428.9485	1126.7683	-236.6385	194.428	1198.3713	-204.117	346.5571	1150.2294	-5.9569	273.3799	1008.578	-21.5081	294.6669	1022.0978	41.0047	352.1892	867.9235	64.0542	400.675	804.9352	42.8733	355.1148	799.1464	66.653	425.1453	723.3531	55.9151	378.236	719.6197	75.6994	264.3925	1347.3854	-509.3878	219.2555	1258.7476	-617.0803	187.7109	1299.9069	-624.0133	159.8349	1313.0319	-779.5211	164.4689	1325.0524	-856.1906	158.0824	1282.4119	-855.4659	146.2632	1326.0399	-932.5602	147.6128	1282.4188	-933.7752	389.4142	904.199	-98.7626	198.7383	932.8401	-169.4455	375.5355	890.1353	-354.8766	193.613	927.0127	-271.3084	313.4069	967.8879	-62.9893	290.2014	942.5104	-386.4956	138.0339	1298.1844	-247.9354	151.0893	1201.3074	-274.2659	142.1634	1339.7811	-380.2451
127	0.63	233.9862	1374.2933	-199.9918	370.394	1323.1619	-219.3737	240.5011	1327.9913	-61.0992	275.3787	1333.2859	-25.8677	294.3256	1366.6279	-49.5103	193.7817	1354.9721	-314.559	215.0008	1374.4311	-356.8573	245.806	1401.2578	-321.3978	428.9348	1126.7645	-236.6175	194.4294	1198.3818	-204.0808	346.5627	1150.2604	-5.9224	273.3416	1008.6104	-21.4206	294.6513	1022.1253	41.0661	352.2304	868.0367	64.198	400.6866	804.9307	43.02	355.1603	799.1154	66.7151	425.175	723.3605	55.9488	378.2541	719.6807	75.7636	264.4237	1347.3003	-509.3023	219.2821	1258.7736	-617.054	187.7254	1299.9285	-624.0008	159.8695	1313.0792	-779.5217	164.5067	1325.0999	-856.1488	158.1329	1282.4734	-855.4327	146.3117	1326.1365	-932.5317	147.6829	1282.5387	-933.7125	389.3872	904.1892	-98.7257	198.7544	932.8369	-169.4307	375.5785	890.1384	-354.8369	193.613	927.0078	-271.2504	313.4487	967.8486	-62.9584	290.1625	942.5215	-386.4424	138.0215	1298.2142	-247.8868	151.0442	1201.316	-274.1677	142.1685	1339.7859	-380.2034
128	0.635	233.9965	1374.2958	-199.9449	370.3695	1323.1752	-219.3485	240.4958	1328.0126	-61.0668	275.3979	1333.2958	-25.8779	294.3266	1366.6442	-49.4698	193.7687	1354.9739	-314.5006	215.0075	1374.4351	-356.7978	245.8136	1401.267	-321.3563	428.9379	1126.7717	-236.5886	194.426	1198.3726	-204.036	346.5894	1150.2749	-5.8737	273.388	1008.6442	-21.3917	294.6787	1022.1432	41.123	352.2732	868.0389	64.2775	400.753	804.9716	43.078	355.1669	799.1829	66.8196	425.2021	723.3504	56.0333	378.2466	719.7337	75.8025	264.3962	1347.4039	-509.243	219.3057	1258.799	-617.0224	187.7582	1299.9352	-623.9636	159.9011	1313.0978	-779.484	164.518	1325.1606	-856.1157	158.2084	1282.5124	-855.411	146.3497	1326.208	-932.5057	147.7871	1282.6451	-933.6775	389.403	904.2115	-98.687	198.7594	932.8259	-169.4002	375.5844	890.1452	-354.7968	193.628	927.028	-271.2441	313.4999	967.8681	-62.9229	290.2523	942.4741	-386.4306	138.0154	1298.2236	-247.8777	151.0691	1201.3265	-274.1197	142.1272	1339.7838	-380.1586
129	0.64	234.0011	1374.275	-199.9217	370.3816	1323.1855	-219.3039	240.4974	1328.0112	-61.0273	275.3933	1333.3046	-25.8042	294.3341	1366.6547	-49.4089	193.7578	1354.9836	-314.4621	215.0846	1374.3611	-356.7541	245.8099	1401.2764	-321.3126	428.9249	1126.8314	-236.5019	194.4742	1198.368	-204.0235	347.0222	1150.568	-5.4008	273.385	1008.6494	-21.2921	294.6879	1022.1351	41.1431	352.3651	868.1207	64.3835	400.2027	804.8731	42.6729	355.2142	799.2092	66.9075	425.2035	723.3728	56.1311	378.348	719.6567	75.8804	264.3936	1347.407	-509.2176	219.335	1258.8107	-617.0002	187.7955	1299.9485	-623.9229	159.9704	1313.1127	-779.4774	164.6123	1325.2218	-856.0907	158.2622	1282.5376	-855.3532	146.4115	1326.2517	-932.4394	147.886	1282.6826	-933.6577	389.4076	904.1858	-98.6715	198.7908	932.8215	-169.3802	375.5894	890.1614	-354.7673	193.6393	927.0087	-271.1837	313.4895	967.8839	-62.8916	290.2369	942.5276	-386.4149	137.9851	1298.2432	-247.7965	151.0783	1201.3315	-274.1085	142.1215	1339.7977	-380.1214
130	0.645	233.9803	1374.2772	-199.8631	370.3741	1323.2123	-219.2865	240.5114	1328.0147	-61.0003	275.3643	1333.3378	-25.7399	294.3595	1366.656	-49.3565	193.7358	1354.9884	-314.4172	214.9646	1374.4457	-356.72	245.8088	1401.2809	-321.2778	428.9253	1126.7941	-236.5264	194.4276	1198.3825	-203.9708	347.0666	1150.5708	-5.3494	273.4617	1008.6641	-21.2623	294.711	1022.1751	41.2132	352.3733	868.1489	64.4637	400.2815	804.8214	42.7286	355.2293	799.251	66.9608	425.2548	723.3878	56.2519	378.326	719.7026	75.9871	264.4784	1347.3908	-509.2221	219.4856	1258.7686	-617.0156	187.8411	1299.9495	-623.8687	160.0159	1313.1465	-779.4412	164.6847	1325.2606	-856.0558	158.3694	1282.5594	-855.3225	146.4718	1326.3158	-932.4318	147.9333	1282.7649	-933.5909	389.375	904.2112	-98.619	198.7801	932.8279	-169.3466	375.6033	890.1833	-354.7538	193.6491	927.0183	-271.155	313.5259	967.8447	-62.8346	290.2326	942.5295	-386.3537	137.9845	1298.2682	-247.7537	151.0819	1201.3605	-274.0064	142.0824	1339.7935	-380.0909
131	0.65	234.0095	1374.2773	-199.7902	370.3936	1323.215	-219.2189	240.4963	1328.0236	-60.9599	275.4084	1333.2754	-25.692	294.3489	1366.652	-49.3225	193.7159	1354.9977	-314.3688	214.9794	1374.4808	-356.6642	245.7954	1401.2963	-321.2329	428.859	1126.7786	-236.4449	194.4497	1198.3818	-203.9217	347.0596	1150.5732	-5.2992	273.4919	1008.6763	-21.1968	294.7128	1022.2017	41.2864	352.4323	868.1245	64.5325	400.2824	804.8663	42.855	355.2622	799.2482	67.0191	425.2825	723.3795	56.333	378.3945	719.6856	76.1074	264.4224	1347.4736	-509.1319	219.5108	1258.801	-616.9798	187.8899	1299.9661	-623.8028	160.0798	1313.1605	-779.4232	164.7343	1325.3005	-856.0335	158.4235	1282.5896	-855.2982	146.571	1326.36	-932.3857	148.0404	1282.8016	-933.5842	390.1691	904.4008	-98.0083	198.7918	932.822	-169.2977	375.6034	890.1852	-354.7074	193.6354	927.0041	-271.1212	313.5198	967.868	-62.8178	290.2183	942.5774	-386.279	137.9855	1298.2631	-247.6809	151.0459	1201.3545	-273.9758	142.0676	1339.8317	-380.0337
